<?xml version="1.0" encoding="UTF-8"?>
<svg xmlns="http://www.w3.org/2000/svg" width="480" height="404" viewBox="0 0 480 404" role="img" aria-labelledby="title desc">
  <title id="title">HYHBalci: visible GitHub activity</title>
  <desc id="desc">Monthly contributions from 2025-10-11 through 2026-10-10. 690 visible contributions across 102 active days. 2025-10: 1, partial month; 2025-11: 4; 2025-12: 0; 2026-01: 1; 2026-02: 11; 2026-03: 0; 2026-04: 5; 2026-05: 2; 2026-06: 41; 2026-07: 130; 2026-08: 237; 2026-09: 174; 2026-10: 84, partial month.</desc>
  <style>text{font-family:Segoe UI,Arial,sans-serif}.text{fill:#e9f1f8}.muted{fill:#a0b5c8}.blue{fill:#82b1ff}.teal{fill:#66c3b1}.coral{fill:#eda082}</style>
  <rect width="480" height="404" rx="16" fill="#122638"/>
  <rect x="12" y="12" width="456" height="380" rx="16" fill="#172e43" stroke="#345068"/>
  <text x="24" y="45" class="text" font-size="24" font-weight="650" text-anchor="start">A year in motion</text><text x="24" y="69" class="muted" font-size="13" font-weight="400" text-anchor="start">11 Oct 2025 — 10 Oct 2026 · UTC</text><text x="24" y="112" class="blue" font-size="30" font-weight="650" text-anchor="start">690</text><text x="24" y="132" class="muted" font-size="13" font-weight="400" text-anchor="start">Visible contributions</text><text x="456" y="112" class="teal" font-size="25" font-weight="650" text-anchor="end">102</text><text x="456" y="132" class="muted" font-size="13" font-weight="400" text-anchor="end">Active days</text><line x1="64" x2="456" y1="290" y2="290" stroke="#345068"/><text x="52" y="294" class="muted" font-size="14" font-weight="400" text-anchor="end">0</text><line x1="64" x2="456" y1="257" y2="257" stroke="#345068"/><text x="52" y="261" class="muted" font-size="14" font-weight="400" text-anchor="end">100</text><line x1="64" x2="456" y1="224" y2="224" stroke="#345068"/><text x="52" y="228" class="muted" font-size="14" font-weight="400" text-anchor="end">200</text><line x1="64" x2="456" y1="191" y2="191" stroke="#345068"/><text x="52" y="195" class="muted" font-size="14" font-weight="400" text-anchor="end">300</text><line x1="64" x2="456" y1="158" y2="158" stroke="#345068"/><text x="52" y="162" class="muted" font-size="14" font-weight="400" text-anchor="end">400</text><rect x="69.43" y="289.67" width="19.30" height="0.33" rx="3" fill="#82b1ff"><title>Oct 2025 (partial): 1 contributions</title></rect><text x="79.07692307692308" y="311" class="muted" font-size="14" font-weight="400" text-anchor="middle">Oct</text><text x="79.07692307692308" y="331" class="muted" font-size="14" font-weight="400" text-anchor="middle">25*</text><rect x="99.58" y="288.68" width="19.30" height="1.32" rx="3" fill="#82b1ff"><title>Nov 2025: 4 contributions</title></rect><text x="109.23076923076923" y="311" class="muted" font-size="14" font-weight="400" text-anchor="middle">Nov</text><line x1="129.74" x2="149.03" y1="290" y2="290" stroke="#345068" stroke-width="3"/><text x="139.3846153846154" y="311" class="muted" font-size="14" font-weight="400" text-anchor="middle">Dec</text><rect x="159.89" y="289.67" width="19.30" height="0.33" rx="3" fill="#82b1ff"><title>Jan 2026: 1 contributions</title></rect><text x="169.53846153846155" y="311" class="muted" font-size="14" font-weight="400" text-anchor="middle">Jan</text><text x="169.53846153846155" y="331" class="muted" font-size="14" font-weight="400" text-anchor="middle">26</text><rect x="190.04" y="286.37" width="19.30" height="3.63" rx="3" fill="#82b1ff"><title>Feb 2026: 11 contributions</title></rect><text x="199.69230769230768" y="311" class="muted" font-size="14" font-weight="400" text-anchor="middle">Feb</text><line x1="220.20" x2="239.50" y1="290" y2="290" stroke="#345068" stroke-width="3"/><text x="229.84615384615384" y="311" class="muted" font-size="14" font-weight="400" text-anchor="middle">Mar</text><rect x="250.35" y="288.35" width="19.30" height="1.65" rx="3" fill="#82b1ff"><title>Apr 2026: 5 contributions</title></rect><text x="260" y="311" class="muted" font-size="14" font-weight="400" text-anchor="middle">Apr</text><rect x="280.50" y="289.34" width="19.30" height="0.66" rx="3" fill="#82b1ff"><title>May 2026: 2 contributions</title></rect><text x="290.1538461538462" y="311" class="muted" font-size="14" font-weight="400" text-anchor="middle">May</text><rect x="310.66" y="276.47" width="19.30" height="13.53" rx="3" fill="#82b1ff"><title>Jun 2026: 41 contributions</title></rect><text x="320.3076923076923" y="311" class="muted" font-size="14" font-weight="400" text-anchor="middle">Jun</text><rect x="340.81" y="247.10" width="19.30" height="42.90" rx="3" fill="#82b1ff"><title>Jul 2026: 130 contributions</title></rect><text x="350.46153846153845" y="311" class="muted" font-size="14" font-weight="400" text-anchor="middle">Jul</text><rect x="370.97" y="211.79" width="19.30" height="78.21" rx="3" fill="#82b1ff"><title>Aug 2026: 237 contributions</title></rect><text x="380.6153846153846" y="311" class="muted" font-size="14" font-weight="400" text-anchor="middle">Aug</text><rect x="401.12" y="232.58" width="19.30" height="57.42" rx="3" fill="#82b1ff"><title>Sept 2026: 174 contributions</title></rect><text x="410.7692307692308" y="311" class="muted" font-size="14" font-weight="400" text-anchor="middle">Sept</text><rect x="431.27" y="262.28" width="19.30" height="27.72" rx="3" fill="#66c3b1"><title>Oct 2026 (partial): 84 contributions</title></rect><text x="440.9230769230769" y="311" class="muted" font-size="14" font-weight="400" text-anchor="middle">Oct</text><text x="440.9230769230769" y="331" class="muted" font-size="14" font-weight="400" text-anchor="middle">26*</text><text x="24" y="358" class="muted" font-size="12" font-weight="400" text-anchor="start">*Partial months · GitHub contribution calendar</text>
  <text x="32" y="376" class="muted" font-size="12" font-weight="400" text-anchor="start">Updated 2026-10-10 12:44 UTC</text>
</svg>
