<?xml version="1.0" encoding="UTF-8"?>
<svg xmlns="http://www.w3.org/2000/svg" width="960" height="383" viewBox="0 0 960 383" role="img" aria-labelledby="title desc">
  <title id="title">HYHBalci: GitHub profile snapshot</title>
  <desc id="desc">4 public owned repositories including forks; 10 followers; 0 stars on public owned nonfork repositories excluding the profile repository. From 2025-10-09 to 2026-10-08: 14 commits, 0 pull requests, 0 issues opened, 0 pr reviews.</desc>
  <style>text{font-family:Segoe UI,Arial,sans-serif}.text{fill:#e9f1f8}.muted{fill:#a0b5c8}.blue{fill:#82b1ff}.teal{fill:#66c3b1}.coral{fill:#eda082}</style>
  <rect width="960" height="383" rx="16" fill="#122638"/>
  <rect x="12" y="12" width="936" height="359" rx="16" fill="#172e43" stroke="#345068"/>
  <text x="32" y="48" class="text" font-size="26" font-weight="650" text-anchor="start">GitHub, at a glance</text><text x="32" y="73" class="muted" font-size="14" font-weight="400" text-anchor="start">A public profile snapshot &amp; a year of public contribution details</text><rect x="32" y="94" width="286" height="90" rx="10" fill="#122638"/><text x="48" y="116" class="muted" font-size="11" font-weight="600" text-anchor="start">Public repositories</text><text x="48" y="148" class="blue" font-size="29" font-weight="650" text-anchor="start">4</text><text x="48" y="171" class="muted" font-size="11" font-weight="400" text-anchor="start">Owned · including forks</text><rect x="337" y="94" width="286" height="90" rx="10" fill="#122638"/><text x="353" y="116" class="muted" font-size="11" font-weight="600" text-anchor="start">Followers</text><text x="353" y="148" class="teal" font-size="29" font-weight="650" text-anchor="start">10</text><text x="353" y="171" class="muted" font-size="11" font-weight="400" text-anchor="start">People following this profile</text><rect x="642" y="94" width="286" height="90" rx="10" fill="#122638"/><text x="658" y="116" class="muted" font-size="11" font-weight="600" text-anchor="start">Repository stars</text><text x="658" y="148" class="blue" font-size="29" font-weight="650" text-anchor="start">0</text><text x="658" y="171" class="muted" font-size="11" font-weight="400" text-anchor="start">Owned originals · excluding profile</text><text x="32" y="222" class="text" font-size="15" font-weight="400" text-anchor="start">Commits</text><rect x="179" y="210" width="650" height="11" rx="5.5" fill="#122638"/><rect x="179" y="210" width="650.00" height="11" rx="5.5" fill="#82b1ff"/><text x="920" y="222" class="text" font-size="15" font-weight="600" text-anchor="end">14</text><text x="32" y="252" class="text" font-size="15" font-weight="400" text-anchor="start">Pull requests</text><rect x="179" y="240" width="650" height="11" rx="5.5" fill="#122638"/><rect x="179" y="240" width="0.00" height="11" rx="5.5" fill="#66c3b1"/><text x="920" y="252" class="text" font-size="15" font-weight="600" text-anchor="end">0</text><text x="32" y="282" class="text" font-size="15" font-weight="400" text-anchor="start">Issues opened</text><rect x="179" y="270" width="650" height="11" rx="5.5" fill="#122638"/><rect x="179" y="270" width="0.00" height="11" rx="5.5" fill="#eda082"/><text x="920" y="282" class="text" font-size="15" font-weight="600" text-anchor="end">0</text><text x="32" y="312" class="text" font-size="15" font-weight="400" text-anchor="start">PR reviews</text><rect x="179" y="300" width="650" height="11" rx="5.5" fill="#122638"/><rect x="179" y="300" width="0.00" height="11" rx="5.5" fill="#bbabeb"/><text x="920" y="312" class="text" font-size="15" font-weight="600" text-anchor="end">0</text><text x="920" y="355" class="muted" font-size="12" font-weight="400" text-anchor="end">Public counts; the calendar can also include anonymous private activity</text>
  <text x="32" y="355" class="muted" font-size="12" font-weight="400" text-anchor="start">Updated 2026-10-08 13:43 UTC</text>
</svg>
