<?xml version="1.0" encoding="UTF-8"?>
<svg xmlns="http://www.w3.org/2000/svg" width="480" height="548" viewBox="0 0 480 548" role="img" aria-labelledby="title desc">
  <title id="title">HYHBalci: GitHub profile snapshot</title>
  <desc id="desc">4 public owned repositories including forks; 10 followers; 0 stars on public owned nonfork repositories excluding the profile repository. From 2025-10-09 to 2026-10-08: 14 commits, 0 pull requests, 0 issues opened, 0 pr reviews.</desc>
  <style>text{font-family:Segoe UI,Arial,sans-serif}.text{fill:#17334d}.muted{fill:#526b80}.blue{fill:#386fc9}.teal{fill:#218579}.coral{fill:#ce7858}</style>
  <rect width="480" height="548" rx="16" fill="#f8faff"/>
  <rect x="12" y="12" width="456" height="524" rx="16" fill="#ffffff" stroke="#d7e3ee"/>
  <text x="24" y="45" class="text" font-size="24" font-weight="650" text-anchor="start">GitHub, at a glance</text><text x="24" y="69" class="muted" font-size="13" font-weight="400" text-anchor="start">A public snapshot &amp; public contribution details</text><rect x="24" y="94" width="432" height="64" rx="10" fill="#f8faff"/><text x="40" y="118" class="text" font-size="14" font-weight="600" text-anchor="start">Public repositories</text><text x="436" y="134" class="blue" font-size="28" font-weight="650" text-anchor="end">4</text><text x="40" y="140" class="muted" font-size="12" font-weight="400" text-anchor="start">Owned · including forks</text><rect x="24" y="165" width="432" height="64" rx="10" fill="#f8faff"/><text x="40" y="189" class="text" font-size="14" font-weight="600" text-anchor="start">Followers</text><text x="436" y="205" class="teal" font-size="28" font-weight="650" text-anchor="end">10</text><text x="40" y="211" class="muted" font-size="12" font-weight="400" text-anchor="start">People following this profile</text><rect x="24" y="236" width="432" height="64" rx="10" fill="#f8faff"/><text x="40" y="260" class="text" font-size="14" font-weight="600" text-anchor="start">Repository stars</text><text x="436" y="276" class="blue" font-size="28" font-weight="650" text-anchor="end">0</text><text x="40" y="282" class="muted" font-size="12" font-weight="400" text-anchor="start">Owned originals · excluding profile</text><text x="24" y="337" class="text" font-size="14" font-weight="400" text-anchor="start">Commits</text><text x="456" y="337" class="text" font-size="14" font-weight="600" text-anchor="end">14</text><rect x="24" y="345" width="432" height="8" rx="4" fill="#f8faff"/><rect x="24" y="345" width="432.00" height="8" rx="4" fill="#386fc9"/><text x="24" y="373" class="text" font-size="14" font-weight="400" text-anchor="start">Pull requests</text><text x="456" y="373" class="text" font-size="14" font-weight="600" text-anchor="end">0</text><rect x="24" y="381" width="432" height="8" rx="4" fill="#f8faff"/><rect x="24" y="381" width="0.00" height="8" rx="4" fill="#218579"/><text x="24" y="409" class="text" font-size="14" font-weight="400" text-anchor="start">Issues opened</text><text x="456" y="409" class="text" font-size="14" font-weight="600" text-anchor="end">0</text><rect x="24" y="417" width="432" height="8" rx="4" fill="#f8faff"/><rect x="24" y="417" width="0.00" height="8" rx="4" fill="#ce7858"/><text x="24" y="445" class="text" font-size="14" font-weight="400" text-anchor="start">PR reviews</text><text x="456" y="445" class="text" font-size="14" font-weight="600" text-anchor="end">0</text><rect x="24" y="453" width="432" height="8" rx="4" fill="#f8faff"/><rect x="24" y="453" width="0.00" height="8" rx="4" fill="#7967af"/><text x="24" y="480" class="muted" font-size="12" font-weight="400" text-anchor="start">Public counts; the calendar can also include</text><text x="24" y="497" class="muted" font-size="12" font-weight="400" text-anchor="start">anonymous private activity.</text>
  <text x="32" y="520" class="muted" font-size="12" font-weight="400" text-anchor="start">Updated 2026-10-08 13:43 UTC</text>
</svg>
